<svg width="1200" height="800" viewBox="0 0 1200 800" fill="none" xmlns="http://www.w3.org/2000/svg">
  <defs>
    <linearGradient id="w1" x1="120" y1="120" x2="1080" y2="680" gradientUnits="userSpaceOnUse">
      <stop stop-color="#22D3EE" stop-opacity="0.45"/>
      <stop offset="0.6" stop-color="#A855F7" stop-opacity="0.30"/>
      <stop offset="1" stop-color="#F472B6" stop-opacity="0.22"/>
    </linearGradient>
    <filter id="b" x="-40" y="-40" width="1280" height="880" filterUnits="userSpaceOnUse" color-interpolation-filters="sRGB">
      <feGaussianBlur stdDeviation="14"/>
    </filter>
  </defs>
  <rect width="1200" height="800" fill="#0B0B0F"/>
  <g filter="url(#b)" opacity="0.9">
    <path d="M170 600C260 460 360 400 520 360C690 318 780 250 880 150C980 50 1080 70 1130 140" stroke="url(#w1)" stroke-width="20" stroke-linecap="round"/>
    <path d="M170 630C310 520 430 470 560 450C720 425 830 350 940 240C1040 140 1120 140 1160 200" stroke="url(#w1)" stroke-width="10" stroke-linecap="round" opacity="0.65"/>
    <path d="M220 250H980" stroke="#F4F4F5" stroke-opacity="0.10" stroke-width="2"/>
    <path d="M220 340H980" stroke="#F4F4F5" stroke-opacity="0.10" stroke-width="2"/>
    <path d="M220 430H980" stroke="#F4F4F5" stroke-opacity="0.10" stroke-width="2"/>
    <path d="M220 520H980" stroke="#F4F4F5" stroke-opacity="0.10" stroke-width="2"/>
  </g>
  <g opacity="0.15">
    <rect x="220" y="220" width="180" height="26" rx="13" fill="#F4F4F5"/>
    <rect x="220" y="310" width="260" height="26" rx="13" fill="#F4F4F5"/>
    <rect x="220" y="400" width="220" height="26" rx="13" fill="#F4F4F5"/>
    <rect x="220" y="490" width="300" height="26" rx="13" fill="#F4F4F5"/>
  </g>
</svg>

