<svg width="1200" height="800" viewBox="0 0 1200 800" fill="none" xmlns="http://www.w3.org/2000/svg">
  <defs>
    <linearGradient id="e1" x1="220" y1="140" x2="980" y2="660" gradientUnits="userSpaceOnUse">
      <stop stop-color="#A855F7" stop-opacity="0.42"/>
      <stop offset="0.5" stop-color="#22D3EE" stop-opacity="0.26"/>
      <stop offset="1" stop-color="#F472B6" stop-opacity="0.20"/>
    </linearGradient>
    <filter id="eb" x="-40" y="-40" width="1280" height="880" filterUnits="userSpaceOnUse" color-interpolation-filters="sRGB">
      <feGaussianBlur stdDeviation="14"/>
    </filter>
  </defs>
  <rect width="1200" height="800" fill="#0B0B0F"/>
  <g filter="url(#eb)">
    <path d="M240 210C320 160 420 160 500 210L740 360C820 410 920 410 1000 360" stroke="url(#e1)" stroke-width="18" stroke-linecap="round"/>
    <path d="M240 330C320 280 420 280 500 330L740 480C820 530 920 530 1000 480" stroke="url(#e1)" stroke-width="12" stroke-linecap="round" opacity="0.7"/>
    <path d="M240 450C320 400 420 400 500 450L740 600C820 650 920 650 1000 600" stroke="url(#e1)" stroke-width="8" stroke-linecap="round" opacity="0.55"/>
    <path d="M320 210L320 640" stroke="#F4F4F5" stroke-opacity="0.10" stroke-width="2"/>
    <path d="M600 210L600 640" stroke="#F4F4F5" stroke-opacity="0.08" stroke-width="2"/>
    <path d="M880 210L880 640" stroke="#F4F4F5" stroke-opacity="0.10" stroke-width="2"/>
  </g>
  <g opacity="0.20">
    <circle cx="320" cy="210" r="10" fill="#F4F4F5"/>
    <circle cx="600" cy="330" r="10" fill="#F4F4F5"/>
    <circle cx="880" cy="450" r="10" fill="#F4F4F5"/>
  </g>
</svg>

