<svg width="1200" height="800" viewBox="0 0 1200 800" fill="none" xmlns="http://www.w3.org/2000/svg">
  <defs>
    <linearGradient id="g1" x1="200" y1="0" x2="1000" y2="800" gradientUnits="userSpaceOnUse">
      <stop stop-color="#A855F7" stop-opacity="0.55"/>
      <stop offset="0.5" stop-color="#22D3EE" stop-opacity="0.35"/>
      <stop offset="1" stop-color="#F472B6" stop-opacity="0.25"/>
    </linearGradient>
    <radialGradient id="g2" cx="0" cy="0" r="1" gradientUnits="userSpaceOnUse" gradientTransform="translate(820 260) rotate(120) scale(520 520)">
      <stop stop-color="#E879F9" stop-opacity="0.55"/>
      <stop offset="1" stop-color="#0B0B0F" stop-opacity="0"/>
    </radialGradient>
    <filter id="blur" x="-40" y="-40" width="1280" height="880" filterUnits="userSpaceOnUse" color-interpolation-filters="sRGB">
      <feGaussianBlur stdDeviation="18"/>
    </filter>
  </defs>

  <rect width="1200" height="800" fill="#0B0B0F"/>
  <g filter="url(#blur)">
    <path d="M210 120C330 40 510 40 630 120C750 200 930 200 1050 120" stroke="url(#g1)" stroke-width="28" stroke-linecap="round" opacity="0.9"/>
    <path d="M170 320C310 220 520 220 660 320C800 420 1010 420 1150 320" stroke="url(#g1)" stroke-width="18" stroke-linecap="round" opacity="0.7"/>
    <path d="M240 560C370 490 550 490 680 560C810 630 990 630 1120 560" stroke="url(#g1)" stroke-width="12" stroke-linecap="round" opacity="0.55"/>
    <circle cx="820" cy="260" r="340" fill="url(#g2)"/>
  </g>

  <g opacity="0.18">
    <circle cx="160" cy="660" r="2" fill="#F4F4F5"/>
    <circle cx="220" cy="610" r="2" fill="#F4F4F5"/>
    <circle cx="280" cy="690" r="2" fill="#F4F4F5"/>
    <circle cx="340" cy="640" r="2" fill="#F4F4F5"/>
    <circle cx="400" cy="700" r="2" fill="#F4F4F5"/>
    <circle cx="460" cy="650" r="2" fill="#F4F4F5"/>
    <circle cx="520" cy="710" r="2" fill="#F4F4F5"/>
    <circle cx="580" cy="660" r="2" fill="#F4F4F5"/>
  </g>
</svg>

